<?xml version="1.0" encoding="UTF-8" standalone="no"?>
<!DOCTYPE svg PUBLIC "-//W3C//DTD SVG 1.1//EN" "http://www.w3.org/Graphics/SVG/1.1/DTD/svg11.dtd">
<svg width="100%" height="100%" viewBox="0 0 512 1024" version="1.1" xmlns="http://www.w3.org/2000/svg" xmlns:xlink="http://www.w3.org/1999/xlink" xml:space="preserve" xmlns:serif="http://www.serif.com/" style="fill-rule:evenodd;clip-rule:evenodd;stroke-linejoin:round;stroke-miterlimit:2;">
    <rect id="Artboard1" x="0" y="0" width="512" height="1024" style="fill:none;"/>
    <g id="Artboard11" serif:id="Artboard1">
        <g transform="matrix(1.04531,0,0,1.04531,255.905,768.226)">
            <g transform="matrix(1,0,0,1,-241.016,-241.016)">
                <clipPath id="_clip1">
                    <rect x="0" y="0" width="482.032" height="482.032"/>
                </clipPath>
                <g clip-path="url(#_clip1)">
                    <path d="M386.163,48.499L217.807,216.857C210.161,218.758 202.757,218.39 197.53,213.17C185.149,200.789 203.06,173.711 212.365,161.432C215.044,157.904 214.116,156.683 210.095,158.555L173.261,175.697C169.246,177.569 165.359,182.624 164.415,186.954C161.501,200.341 154.603,227.112 144.115,237.6C132.315,249.398 61.686,263.119 37.79,267.492C33.432,268.273 29.852,272.472 29.491,276.897C26.531,313.244 8.446,355.851 0.769,372.566C-1.086,376.589 0.515,378.148 4.536,376.285C57.212,351.896 94.383,363.902 102.9,372.426C110.302,379.832 88.143,450.604 80.479,474.207C79.114,478.414 81.13,480.109 85.033,478.01L157.155,439.078C161.056,436.977 164.956,431.752 165.937,427.428C170.648,406.698 184.309,351.071 198.303,337.073C210.409,324.967 231.104,321.465 242.447,320.434C246.859,320.045 252.227,316.892 254.387,313.029L269.415,286.311C271.591,282.448 270.549,281.582 266.83,283.999C255.56,291.333 232.093,303.187 216.362,287.454C209.508,280.6 210.692,268.995 215.388,256.404L405.423,66.358C408.841,63.515 417.373,57.354 424.542,60.275C424.542,60.275 451.681,28.049 469.998,28.394C469.998,28.394 476.266,14.32 482.032,3.123L387.565,24.32C387.565,24.32 395.488,36.873 386.163,48.499ZM155.207,330.984L146.164,340.021C143.028,343.155 137.951,343.155 134.811,340.021L110.696,315.912C107.564,312.766 107.564,307.693 110.696,304.548L119.739,295.511C122.871,292.373 127.948,292.373 131.088,295.511L155.207,319.619C158.339,322.765 158.339,327.839 155.207,330.984ZM191.599,283.235C194.735,286.366 194.735,291.439 191.599,294.581L182.558,303.63C179.426,306.756 174.347,306.756 171.207,303.63L147.088,279.509C143.956,276.383 143.956,271.302 147.088,268.164L156.135,259.119C159.267,255.981 164.346,255.981 167.486,259.119L171.513,263.142L190.069,281.704L191.599,283.235Z" style="fill:rgb(0,128,128);fill-rule:nonzero;"/>
                </g>
            </g>
        </g>
        <g transform="matrix(1.037,0,0,1.05647,7.03261,2.25689)">
            <path d="M386.163,48.499L217.807,216.857C210.161,218.758 202.757,218.39 197.53,213.17C185.149,200.789 203.06,173.711 212.365,161.432C215.044,157.904 214.116,156.683 210.095,158.555L173.261,175.697C169.246,177.569 165.359,182.624 164.415,186.954C161.501,200.341 154.603,227.112 144.115,237.6C132.315,249.398 61.686,263.119 37.79,267.492C33.432,268.273 29.852,272.472 29.491,276.897C26.531,313.244 8.446,355.851 0.769,372.566C-1.086,376.589 0.515,378.148 4.536,376.285C57.212,351.896 94.383,363.902 102.9,372.426C110.302,379.832 88.143,450.604 80.479,474.207C79.114,478.414 81.13,480.109 85.033,478.01L157.155,439.078C161.056,436.977 164.956,431.752 165.937,427.428C170.648,406.698 184.309,351.071 198.303,337.073C210.409,324.967 231.104,321.465 242.447,320.434C246.859,320.045 252.227,316.892 254.387,313.029L269.415,286.311C271.591,282.448 270.549,281.582 266.83,283.999C255.56,291.333 232.093,303.187 216.362,287.454C209.508,280.6 210.692,268.995 215.388,256.404L405.423,66.358C408.841,63.515 417.373,57.354 424.542,60.275C424.542,60.275 451.681,28.049 469.998,28.394C469.998,28.394 476.266,14.32 482.032,3.123L387.565,24.32C387.565,24.32 395.488,36.873 386.163,48.499ZM155.207,330.984L146.164,340.021C143.028,343.155 137.951,343.155 134.811,340.021L110.696,315.912C107.564,312.766 107.564,307.693 110.696,304.548L119.739,295.511C122.871,292.373 127.948,292.373 131.088,295.511L155.207,319.619C158.339,322.765 158.339,327.839 155.207,330.984ZM191.599,283.235C194.735,286.366 194.735,291.439 191.599,294.581L182.558,303.63C179.426,306.756 174.347,306.756 171.207,303.63L147.088,279.509C143.956,276.383 143.956,271.302 147.088,268.164L156.135,259.119C159.267,255.981 164.346,255.981 167.486,259.119L171.513,263.142L190.069,281.704L191.599,283.235Z" style="fill-rule:nonzero;"/>
        </g>
    </g>
</svg>
