<?xml version="1.0" encoding="UTF-8" standalone="no"?>
<!DOCTYPE svg PUBLIC "-//W3C//DTD SVG 1.1//EN" "http://www.w3.org/Graphics/SVG/1.1/DTD/svg11.dtd">
<svg width="100%" height="100%" viewBox="0 0 512 1024" version="1.1" xmlns="http://www.w3.org/2000/svg" xmlns:xlink="http://www.w3.org/1999/xlink" xml:space="preserve" xmlns:serif="http://www.serif.com/" style="fill-rule:evenodd;clip-rule:evenodd;stroke-linejoin:round;stroke-miterlimit:2;">
    <rect id="Artboard1" x="0" y="0" width="512" height="1024" style="fill:none;"/>
    <g id="Artboard11" serif:id="Artboard1">
        <g transform="matrix(1,0,0,1,0,509.092)">
            <g transform="matrix(1,0,0,1,0,1)">
                <path d="M255.987,119.441C246.575,119.441 238.92,127.095 238.92,136.508C238.92,145.92 246.574,153.575 255.987,153.575C265.4,153.575 273.054,145.921 273.054,136.508C273.054,127.095 265.4,119.441 255.987,119.441Z" style="fill:rgb(0,128,128);fill-rule:nonzero;"/>
            </g>
            <g transform="matrix(1,0,0,1,0,1)">
                <path d="M255.987,85.308C208.934,85.308 170.654,123.589 170.654,170.641C170.654,217.693 208.935,255.974 255.987,255.974C303.039,255.974 341.32,217.693 341.32,170.641C341.32,123.589 303.04,85.308 255.987,85.308ZM307.187,221.841C307.187,226.56 303.373,230.374 298.654,230.374C293.935,230.374 290.121,226.56 290.121,221.841L290.121,204.774C290.121,185.949 274.812,170.641 255.988,170.641C237.164,170.641 221.855,185.95 221.855,204.774L221.855,221.841C221.855,226.56 218.041,230.374 213.322,230.374C208.603,230.374 204.789,226.56 204.789,221.841L204.789,204.774C204.789,185.489 215.507,168.678 231.302,159.948C225.482,153.821 221.856,145.603 221.856,136.507C221.856,117.682 237.165,102.374 255.989,102.374C274.813,102.374 290.122,117.683 290.122,136.507C290.122,145.604 286.495,153.821 280.676,159.948C296.471,168.678 307.189,185.488 307.189,204.774L307.189,221.841L307.187,221.841Z" style="fill:rgb(0,128,128);fill-rule:nonzero;"/>
            </g>
            <g transform="matrix(1,0,0,1,0,2.45401)">
                <path d="M255.987,0C161.882,0 85.321,76.553 85.321,170.641C85.321,216.542 99.333,244.557 118.712,283.332C121.724,289.365 124.882,295.68 128.15,302.387C175.894,400.452 248.205,507.17 248.931,508.237C250.518,510.575 253.164,511.975 255.988,511.975C258.812,511.975 261.458,510.576 263.045,508.237C263.77,507.17 336.082,400.452 383.826,302.387C387.094,295.68 390.252,289.365 393.264,283.332C412.643,244.556 426.655,216.542 426.655,170.641C426.654,76.553 350.093,0 255.987,0ZM255.987,273.041C199.522,273.041 153.587,227.106 153.587,170.641C153.587,114.176 199.522,68.241 255.987,68.241C312.452,68.241 358.387,114.176 358.387,170.641C358.387,227.106 312.452,273.041 255.987,273.041Z" style="fill:rgb(0,128,128);fill-rule:nonzero;"/>
            </g>
        </g>
        <g>
            <path d="M255.987,119.441C246.575,119.441 238.92,127.095 238.92,136.508C238.92,145.92 246.574,153.575 255.987,153.575C265.4,153.575 273.054,145.921 273.054,136.508C273.054,127.095 265.4,119.441 255.987,119.441Z" style="fill-rule:nonzero;"/>
            <path d="M255.987,85.308C208.934,85.308 170.654,123.589 170.654,170.641C170.654,217.693 208.935,255.974 255.987,255.974C303.039,255.974 341.32,217.693 341.32,170.641C341.32,123.589 303.04,85.308 255.987,85.308ZM307.187,221.841C307.187,226.56 303.373,230.374 298.654,230.374C293.935,230.374 290.121,226.56 290.121,221.841L290.121,204.774C290.121,185.949 274.812,170.641 255.988,170.641C237.164,170.641 221.855,185.95 221.855,204.774L221.855,221.841C221.855,226.56 218.041,230.374 213.322,230.374C208.603,230.374 204.789,226.56 204.789,221.841L204.789,204.774C204.789,185.489 215.507,168.678 231.302,159.948C225.482,153.821 221.856,145.603 221.856,136.507C221.856,117.682 237.165,102.374 255.989,102.374C274.813,102.374 290.122,117.683 290.122,136.507C290.122,145.604 286.495,153.821 280.676,159.948C296.471,168.678 307.189,185.488 307.189,204.774L307.189,221.841L307.187,221.841Z" style="fill-rule:nonzero;"/>
            <path d="M255.987,0C161.882,0 85.321,76.553 85.321,170.641C85.321,216.542 99.333,244.557 118.712,283.332C121.724,289.365 124.882,295.68 128.15,302.387C175.894,400.452 248.205,507.17 248.931,508.237C250.518,510.575 253.164,511.975 255.988,511.975C258.812,511.975 261.458,510.576 263.045,508.237C263.77,507.17 336.082,400.452 383.826,302.387C387.094,295.68 390.252,289.365 393.264,283.332C412.643,244.556 426.655,216.542 426.655,170.641C426.654,76.553 350.093,0 255.987,0ZM255.987,273.041C199.522,273.041 153.587,227.106 153.587,170.641C153.587,114.176 199.522,68.241 255.987,68.241C312.452,68.241 358.387,114.176 358.387,170.641C358.387,227.106 312.452,273.041 255.987,273.041Z" style="fill-rule:nonzero;"/>
        </g>
    </g>
</svg>
