<?xml version="1.0" encoding="UTF-8" standalone="no"?>
<!DOCTYPE svg PUBLIC "-//W3C//DTD SVG 1.1//EN" "http://www.w3.org/Graphics/SVG/1.1/DTD/svg11.dtd">
<svg width="100%" height="100%" viewBox="0 0 154 97" version="1.1" xmlns="http://www.w3.org/2000/svg" xmlns:xlink="http://www.w3.org/1999/xlink" xml:space="preserve" xmlns:serif="http://www.serif.com/" style="fill-rule:evenodd;clip-rule:evenodd;stroke-linejoin:round;stroke-miterlimit:2;">
    <g id="playbtn" transform="matrix(0.671164,0,0,0.422267,0,0)">
        <rect x="0" y="0" width="228" height="228" style="fill:none;"/>
        <g transform="matrix(1.48995,0,0,2.36817,0,0)">
            <path d="M151.608,6.873C151.608,3.988 149.269,1.649 146.384,1.649C123.184,1.649 29.609,1.649 6.409,1.649C3.524,1.649 1.185,3.988 1.185,6.873C1.185,23.257 1.185,73.505 1.185,89.888C1.185,92.774 3.524,95.113 6.409,95.113C29.609,95.113 123.184,95.113 146.384,95.113C149.269,95.113 151.608,92.774 151.608,89.888C151.608,73.505 151.608,23.257 151.608,6.873ZM106.29,46.748C106.9,47.064 107.283,47.694 107.283,48.381C107.283,49.068 106.9,49.697 106.29,50.014C96.46,55.115 66.432,70.698 57.264,75.456C56.694,75.752 56.01,75.729 55.461,75.396C54.912,75.062 54.577,74.466 54.577,73.823C54.577,63.958 54.577,32.804 54.577,22.938C54.577,22.296 54.912,21.7 55.461,21.366C56.01,21.033 56.694,21.01 57.264,21.305C66.432,26.064 96.46,41.647 106.29,46.748Z" style="fill:rgb(67,22,21);"/>
        </g>
    </g>
</svg>
